<?xml version="1.0" standalone="no"?>
<!DOCTYPE svg PUBLIC "-//W3C//DTD SVG 20010904//EN"
 "http://www.w3.org/TR/2001/REC-SVG-20010904/DTD/svg10.dtd">
<svg version="1.0" xmlns="http://www.w3.org/2000/svg"
 width="128.000000pt" height="128.000000pt" viewBox="0 0 128.000000 128.000000"
 preserveAspectRatio="xMidYMid meet">
<metadata>
Created by potrace 1.14, written by Peter Selinger 2001-2017
</metadata>
<g transform="translate(0.000000,128.000000) scale(0.100000,-0.100000)"
fill="#000000" stroke="none">
<path d="M240 1160 l0 -40 -41 0 c-40 0 -41 0 -38 -34 4 -44 -3 -51 -46 -48
l-35 3 0 -401 0 -400 40 0 40 0 0 -40 0 -40 40 0 40 0 0 -40 0 -40 400 0 400
0 0 40 0 40 40 0 40 0 0 40 0 40 40 0 40 0 0 400 0 400 -40 0 -40 0 0 40 0 40
-40 0 c-40 0 -40 0 -40 40 l0 40 -400 0 -400 0 0 -40z m370 -132 c0 -7 -184
-98 -200 -98 -5 0 -10 -3 -12 -7 -1 -5 -20 -16 -40 -25 l-38 -18 0 41 c0 32 3
40 18 38 53 -5 62 0 62 34 0 19 2 36 4 38 8 8 206 5 206 -3z m268 -31 l3 -37
-39 0 c-39 0 -172 54 -172 69 0 4 46 7 103 7 l102 -1 3 -38z m-569 -121 c-2
-2 -19 -11 -36 -20 -32 -16 -33 -16 -33 4 0 16 7 20 37 20 20 0 34 -2 32 -4z
m728 -11 c9 -24 1 -25 -37 -5 l-35 19 33 1 c20 0 35 -6 39 -15z m-292 -305 c2
-12 1 -20 -2 -16 -4 4 -8 16 -10 28 -4 28 6 18 12 -12z m39 2 c3 -5 -1 -9 -9
-9 -8 0 -12 4 -9 9 3 4 7 8 9 8 2 0 6 -4 9 -8z m-99 -20 c-3 -3 0 -11 6 -19
17 -20 5 -16 -14 5 -15 16 -15 19 -2 19 8 0 13 -3 10 -5z m102 -15 c0 -8 -6
-14 -14 -14 -9 0 -10 4 -2 14 6 7 12 13 14 13 1 0 2 -6 2 -13z m63 10 c0 -2
-8 -11 -18 -20 -15 -14 -19 -15 -19 -2 0 8 4 12 8 9 4 -2 10 0 14 6 6 10 15
14 15 7z m-123 -22 c0 -8 -4 -12 -9 -9 -5 3 -6 10 -3 15 9 13 12 11 12 -6z
m-339 -30 c-3 -3 -9 2 -12 12 -6 14 -5 15 5 6 7 -7 10 -15 7 -18z m392 8 c12
10 12 9 1 -6 -8 -9 -16 -15 -19 -12 -3 3 -12 -1 -21 -8 -14 -10 -14 -10 -3 5
8 9 11 23 7 30 -4 7 0 5 8 -4 11 -14 16 -15 27 -5z m-123 -11 c-10 -10 -15
-21 -12 -24 3 -2 -2 -5 -10 -5 -12 0 -10 6 7 24 25 27 39 32 15 5z m49 -8 c1
-9 0 -13 -4 -10 -3 4 -7 14 -8 22 -1 9 0 13 4 10 3 -4 7 -14 8 -22z m137 11
c-3 -9 -8 -14 -10 -11 -3 3 -2 9 2 15 9 16 15 13 8 -4z m24 -10 c0 -8 -4 -12
-9 -9 -5 3 -6 10 -3 15 9 13 12 11 12 -6z m-59 -8 c8 -10 6 -13 -7 -13 -11 0
-17 6 -14 13 3 7 6 13 8 13 1 0 7 -6 13 -13z m155 0 c3 -8 -1 -14 -8 -14 -7 0
-11 6 -8 14 3 7 6 13 8 13 2 0 5 -6 8 -13z m-278 -17 c4 -6 10 -8 14 -6 4 3 8
-1 8 -9 0 -12 -4 -12 -21 2 -12 10 -23 19 -25 20 -2 2 1 3 7 3 6 0 14 -5 17
-10z m325 6 c0 -2 -8 -10 -17 -17 -16 -13 -17 -12 -4 4 13 16 21 21 21 13z
m-722 -31 c0 -20 -6 -25 -24 -25 -15 0 -24 6 -24 15 0 8 5 15 10 15 6 0 10 -4
10 -10 0 -5 5 -10 10 -10 6 0 9 3 9 8 -2 12 1 32 5 32 2 0 4 -11 4 -25z m752
-10 c0 -17 -37 -20 -60 -4 -12 8 -11 9 5 5 11 -3 27 -1 35 4 20 13 20 13 20
-5z m-95 -4 c3 -5 2 -12 -3 -15 -5 -3 -9 1 -9 9 0 17 3 19 12 6z m-311 -13
c-3 -4 -9 -8 -15 -8 -5 0 -9 4 -9 8 0 5 7 9 15 9 8 0 12 -4 9 -9z m96 0 c0 -6
-3 -8 -7 -5 -3 4 -13 1 -22 -6 -14 -11 -14 -10 -2 6 15 20 31 22 31 5z m169
-2 c8 -10 9 -16 1 -21 -6 -4 -9 -1 -8 7 2 7 -3 12 -9 11 -7 -2 -13 2 -13 7 0
14 16 12 29 -4z m-85 -14 c2 -4 -4 -8 -14 -8 -10 0 -16 4 -14 8 3 4 9 8 14 8
5 0 11 -4 14 -8z m146 -27 c0 -34 -1 -35 -40 -35 l-40 0 0 -40 0 -40 -105 0
c-63 0 -105 4 -105 10 0 5 3 9 8 8 14 -5 202 93 197 102 -3 6 1 7 9 4 8 -3 27
1 43 10 15 8 29 15 31 16 1 0 2 -16 2 -35z m-430 22 c0 -2 -8 -11 -18 -20 -15
-14 -19 -15 -19 -2 0 8 4 12 8 9 4 -2 10 0 14 6 6 10 15 14 15 7z m74 -26 c-2
-3 -12 3 -22 13 -16 17 -16 18 5 5 12 -7 20 -15 17 -18z m155 5 c9 -11 9 -16
-1 -22 -7 -4 -10 -4 -6 1 4 4 3 14 -3 22 -6 7 -9 13 -6 13 2 0 10 -6 16 -14z
m-219 -10 c0 -2 -8 -10 -17 -17 -16 -13 -17 -12 -4 4 13 16 21 21 21 13z m194
-4 c2 -4 -4 -8 -14 -8 -10 0 -16 4 -14 8 3 4 9 8 14 8 5 0 11 -4 14 -8z m-151
-17 c-3 -9 -8 -14 -10 -11 -3 3 -2 9 2 15 9 16 15 13 8 -4z m-15 -58 l57 -27
-112 0 -113 0 0 40 0 41 40 -5 c22 -3 45 -8 50 -11 6 -3 8 2 5 12 -4 14 -3 13
5 -2 6 -11 37 -33 68 -48z m43 36 c13 -16 12 -17 -3 -4 -17 13 -22 21 -14 21
2 0 10 -8 17 -17z m123 -8 c-4 -8 -11 -12 -16 -9 -6 4 -5 10 3 15 19 12 19 11
13 -6z m-125 -22 c2 -1 -5 -1 -16 0 -11 0 -20 7 -20 14 0 10 4 10 16 1 9 -7
18 -13 20 -15z m86 7 c-3 -5 -12 -10 -18 -10 -7 0 -6 4 3 10 19 12 23 12 15 0z"/>
</g>
</svg>
