<?xml version="1.0" standalone="no"?>
<!DOCTYPE svg PUBLIC "-//W3C//DTD SVG 20010904//EN"
 "http://www.w3.org/TR/2001/REC-SVG-20010904/DTD/svg10.dtd">
<svg version="1.0" xmlns="http://www.w3.org/2000/svg"
 width="81.000000pt" height="81.000000pt" viewBox="0 0 81.000000 81.000000"
 preserveAspectRatio="xMidYMid meet">
<metadata>
Created by potrace 1.14, written by Peter Selinger 2001-2017
</metadata>
<g transform="translate(0.000000,81.000000) scale(0.100000,-0.100000)"
fill="#000000" stroke="none">
<path d="M270 709 c-91 -27 -180 -52 -198 -55 -27 -6 -32 -11 -32 -36 0 -21 6
-31 20 -35 17 -5 20 -14 20 -59 0 -55 -6 -64 -28 -42 -9 9 -12 -13 -12 -100 0
-108 1 -113 22 -121 23 -8 42 4 32 21 -3 4 0 8 5 8 6 0 11 -11 11 -24 0 -24
13 -36 84 -76 34 -19 42 -16 37 13 0 4 3 7 8 7 11 0 23 -29 16 -41 -7 -11 73
-62 85 -54 6 4 10 14 10 24 0 10 9 21 20 24 16 4 20 14 20 49 l0 44 -35 -4
c-35 -4 -35 -4 -35 36 0 23 -5 44 -11 48 -10 6 -8 39 4 89 3 11 6 31 6 45 1
24 7 27 63 39 35 7 80 19 100 26 l38 13 0 -34 c0 -24 5 -34 15 -34 9 0 15 -9
15 -21 0 -18 4 -20 33 -14 47 11 47 11 47 74 l0 59 45 13 c25 7 45 17 45 21 0
9 -45 39 -102 67 -34 17 -56 22 -79 17 -19 -4 -38 -1 -46 6 -11 9 -19 9 -35
-1 -15 -9 -23 -9 -33 -1 -8 7 -20 8 -26 4 -7 -4 -9 -3 -6 3 4 6 27 14 52 17
48 8 65 20 39 30 -26 10 -41 6 -214 -45z m99 -18 c20 -13 -23 -25 -57 -15
l-27 7 25 7 c35 11 43 11 59 1z m87 -17 c-32 -12 -42 -12 -53 -2 -10 11 -2 13
40 15 l52 1 -39 -14z m-202 -11 c3 -4 -4 -13 -16 -20 -13 -7 -17 -12 -10 -13
24 0 12 -20 -13 -20 -14 0 -25 5 -25 11 0 5 -4 7 -10 4 -5 -3 -18 -2 -27 4
-17 9 -17 10 1 17 15 6 66 19 87 23 3 1 9 -2 13 -6z m-104 -184 c0 -39 -3 -47
-15 -43 -11 5 -15 21 -15 61 0 48 2 54 15 43 10 -8 15 -30 15 -61z m108 -57
l3 -52 -35 17 c-29 13 -36 22 -36 46 0 24 3 27 20 22 14 -5 20 -2 20 10 0 9 6
15 13 13 7 -3 13 -26 15 -56z"/>
<path d="M708 538 c-22 -7 -28 -16 -28 -39 0 -30 7 -33 48 -23 17 5 22 14 22
40 0 37 -1 37 -42 22z"/>
<path d="M403 453 c-7 -2 -13 -18 -13 -35 0 -27 3 -30 23 -24 12 3 25 6 30 6
4 0 7 14 7 30 0 30 -14 37 -47 23z"/>
<path d="M700 409 c-13 -6 -46 -11 -72 -13 -26 -2 -67 -13 -91 -25 -24 -12
-64 -27 -88 -34 -37 -11 -45 -17 -47 -40 -3 -25 -1 -27 22 -21 l26 6 0 -122
c0 -122 0 -122 23 -116 12 3 25 6 29 6 4 0 10 24 13 54 l7 55 50 10 c67 15 66
16 64 -28 -1 -45 4 -54 28 -45 14 5 16 24 16 130 l0 123 35 7 c30 5 35 10 35
35 0 31 -9 34 -50 18z"/>
<path d="M756 323 c-3 -21 -2 -54 3 -73 8 -30 9 -25 10 38 1 79 -4 93 -13 35z"/>
</g>
</svg>
